<svg xmlns="http://www.w3.org/2000/svg" width="314.72" height="54.29" viewBox="0 0 314.72 54.29">
    <g>
      <path d="M71.69,43.21,51,37.31a7.81,7.81,0,0,0-3.61,0L35.22,40.79a2.47,2.47,0,0,0-1.12-.63,1.84,1.84,0,0,0-2,1.23,3.32,3.32,0,0,0-.11.33l-5.24,1.49c-1,.28-1,.75,0,1l4.88,1.39c0,.27,0,.54,0,.81h.93c0-.16,0-.34,0-.54L38,47.44a23.51,23.51,0,0,0-1.31,5.66c0,.21.34.47.55.38l.07,0a12.82,12.82,0,0,0-.45,3.28,7.74,7.74,0,0,0,.76,2.73,6.79,6.79,0,0,1,.63,1.93,1.1,1.1,0,0,0,1,.74c.07.28.15.58.25.93a33,33,0,0,0,4.19,7.24l.28.29c0,.42,0,1,0,1.73s-.42,1-1,1.41L31.11,77s9.56,13.28,17.72,14.3v0l.2,0,.2,0v0c8.16-1,17.72-14.3,17.72-14.3L55.29,73.82l.06-.1c-.64-.32-1.07-.51-1.07-1.29s0-1.14,0-1.5l.12-.12c1-1.09,4.25-6.26,4.36-8.66a1.08,1.08,0,0,0,.93-.73,6.74,6.74,0,0,1,.63-1.93,7.78,7.78,0,0,0,.76-2.73,13,13,0,0,0-.49-3.42l.36.16c.17.08.43-.19.38-.41a46.71,46.71,0,0,0-1.33-5.53l11.64-3.32C72.69,44,72.69,43.49,71.69,43.21Zm-38-2.15a.72.72,0,0,1,.4.06l-.89.25A.86.86,0,0,1,33.68,41.05Z" transform="translate(-26.01 -37.1)" style="fill: #1e8d76"/>
      <path d="M31.38,46.63V48.2a.19.19,0,0,0,.19.19h0c-.33,2.59-.2,5.09-.42,7.69-.24,2.88,0,6.16-.94,8.87-.08.24.32.24.38.05.71-2.15.56-4.25.74-6.52.2-2.49.2-5,.37-7.44-.08,4.8-.57,9.6-.54,14.37L31,66.71s.08,0,.17,0v.08c0,.24.41.17.4,0,0-.47,0-.94,0-1.41.19-1.4.4-2.79.55-4.2,0,1.7,0,3.39-.1,5.1,0,.14.14.17.26.13a21.47,21.47,0,0,1-.51,2.47c0,.13.36.07.39-.06a21.83,21.83,0,0,0,.51-2.44c0,.15,0,.3,0,.45s.39.11.39,0c0-3.21.21-6.41.25-9.62a56.63,56.63,0,0,0-.75-7.43c0-.45.09-.9.15-1.35h0a.19.19,0,0,0,.19-.19V46.63a.18.18,0,0,0-.19-.18h-1A.18.18,0,0,0,31.38,46.63Zm.24,14c.11-2.39.27-4.79.37-7.19,0,.85,0,1.69-.05,2.53C31.89,57.56,31.77,59.11,31.63,60.66Zm.79,4.14q.07-2.55.06-5.08A38.69,38.69,0,0,1,32.42,64.8ZM32.9,60c-.09-2.25-.31-4.52-.46-6.78,0-.13,0-.26,0-.39.12,1,.25,2,.35,3A31.76,31.76,0,0,1,32.9,60Z" transform="translate(-26.01 -37.1)" style="fill: #1e8d76"/>
    </g>
    <g>
      <path d="M115.77,77.2V52.75L105.64,77.2h-2.47L93.09,52.75V77.2H87.31V44.26h8.15l8.94,21.68,9-21.68h8.15V77.2Z" transform="translate(-26.01 -37.1)" style="fill: #1e8d76"/>
      <path d="M126.92,81.89a5.42,5.42,0,0,0,2,.4,3.23,3.23,0,0,0,3.41-2.07l1.19-2.72-9.78-24.15h5.53l7,17.88,7-17.88h5.58L137.24,81.5c-1.63,4-4.49,5.33-8.2,5.38a14.69,14.69,0,0,1-2.91-.35Z" transform="translate(-26.01 -37.1)" style="fill: #1e8d76"/>
      <path d="M149.79,72.56,153,68.11a14.21,14.21,0,0,0,10.42,4.54c4.74,0,6.62-2.32,6.62-4.5,0-6.91-19.21-2.62-19.21-14.77,0-5.43,4.79-9.63,12-9.63a17.14,17.14,0,0,1,12.35,4.59l-3.31,4.3a13.39,13.39,0,0,0-9.53-3.75c-3.41,0-5.58,1.63-5.58,4.1,0,6.13,19.16,2.32,19.16,14.62,0,5.48-3.85,10.17-12.74,10.17C157.1,77.79,152.7,75.67,149.79,72.56Z" transform="translate(-26.01 -37.1)" style="fill: #1e8d76"/>
      <path d="M181.74,71.67V57.89h-4V53.35h4V46.83h5.19v6.52h4.84v4.54h-4.84v12.5c0,1.63.79,2.82,2.27,2.82a3.35,3.35,0,0,0,2.32-.84l1.23,3.9a6.84,6.84,0,0,1-4.89,1.53C183.87,77.79,181.74,75.62,181.74,71.67Z" transform="translate(-26.01 -37.1)" style="fill: #1e8d76"/>
      <path d="M210.86,77.2V74a11.43,11.43,0,0,1-8.45,3.75c-5.14,0-7.66-2.67-7.66-7.56V53.35h5.19v15c0,3.7,1.88,4.84,4.79,4.84a7.94,7.94,0,0,0,6.13-3.11V53.35H216V77.2Z" transform="translate(-26.01 -37.1)" style="fill: #1e8d76"/>
      <path d="M236.32,77.2V73.94a9.66,9.66,0,0,1-7.66,3.85c-6.12,0-10.62-4.64-10.62-12.5s4.45-12.55,10.62-12.55a9.57,9.57,0,0,1,7.66,3.9V44.26h5.19V77.2Zm0-7.16V60.56a7.84,7.84,0,0,0-6.17-3.21c-4.1,0-6.72,3.31-6.72,8s2.62,7.9,6.72,7.9A7.79,7.79,0,0,0,236.32,70Z" transform="translate(-26.01 -37.1)" style="fill: #1e8d76"/>
      <path d="M246.72,81.89a5.42,5.42,0,0,0,2,.4,3.23,3.23,0,0,0,3.41-2.07l1.19-2.72-9.78-24.15H249l7,17.88,7-17.88h5.58L257,81.5c-1.63,4-4.49,5.33-8.2,5.38a14.7,14.7,0,0,1-2.91-.35Z" transform="translate(-26.01 -37.1)" style="fill: #1e8d76"/>
      <path d="M270.55,77.2V44.26h5.78V72.11h14.52V77.2Z" transform="translate(-26.01 -37.1)" style="fill: #1e8d76"/>
      <path d="M292.85,47.22a3.21,3.21,0,1,1,3.21,3.21A3.24,3.24,0,0,1,292.85,47.22Zm.64,30V53.35h5.19V77.2Z" transform="translate(-26.01 -37.1)" style="fill: #1e8d76"/>
      <path d="M304.61,77.2V57.89h-4V53.35h4V52c0-5.19,3-8.25,7.56-8.25a7.77,7.77,0,0,1,5.73,2.07l-2,3.21a3.89,3.89,0,0,0-2.77-1c-2,0-3.31,1.33-3.31,4v1.33h4.84v4.54H309.8V77.2Z" transform="translate(-26.01 -37.1)" style="fill: #1e8d76"/>
      <path d="M316.86,65.25c0-6.92,5-12.5,12.1-12.5s11.75,5.48,11.75,13V67H322.3a7.23,7.23,0,0,0,7.61,6.57,10.1,10.1,0,0,0,6.77-2.62L339,74.34a13.91,13.91,0,0,1-9.68,3.46C322.2,77.79,316.86,72.81,316.86,65.25ZM329,57a6.58,6.58,0,0,0-6.72,6.32h13.43A6.38,6.38,0,0,0,329,57Z" transform="translate(-26.01 -37.1)" style="fill: #1e8d76"/>
    </g>
</svg>