<?xml version="1.0" encoding="utf-8"?>
<!-- Generator: Adobe Illustrator 20.1.0, SVG Export Plug-In . SVG Version: 6.00 Build 0)  -->
<svg version="1.1" id="Layer_1" xmlns="http://www.w3.org/2000/svg" xmlns:xlink="http://www.w3.org/1999/xlink" x="0px" y="0px"
	 viewBox="0 0 150 132" style="enable-background:new 0 0 150 132;" xml:space="preserve">
<style type="text/css">
	.st0{fill:#FFFFFF;}
	.st1{fill:#208E77;}
</style>
<g>
	<circle class="st0" cx="75" cy="47.3" r="40.7"/>
	<g>
		<g>
			<g>
				<path class="st1" d="M96.2,29.9l-19.5-5.5c-0.5-0.1-1.1-0.2-1.7-0.2c-0.6,0-1.2,0.1-1.7,0.2l-11.5,3.3c-0.4-0.3-0.6-0.5-1.1-0.6
					c-0.6-0.1-1.5,0.2-1.9,1.2c0,0.1-0.1,0.2-0.1,0.3l-4.9,1.4c-0.9,0.3-0.9,0.7,0,1l4.6,1.3c0,0.3,0,0.5,0,0.8l0.9,0
					c0-0.2,0-0.3,0-0.5l5.1,1.5c-0.5,1.4-1,3.1-1.2,5.3c0,0.2,0.3,0.4,0.5,0.4c0,0,0,0,0.1,0c-0.2,0.8-0.4,1.8-0.4,3.1
					c0,0.9,0.5,2.2,0.7,2.6c0.3,0.6,0.5,1.4,0.6,1.8c0,0.3,0.4,0.7,1,0.7c0.1,0.3,0.1,0.5,0.2,0.9c0.4,1.5,3,5.7,3.9,6.8
					c0.1,0.1,0.2,0.2,0.3,0.3c0,0.4,0,0.9,0,1.6c0,0.8-0.4,1-1,1.3L58,61.7c0,0,9,12.5,16.7,13.5v0c0.1,0,0.1,0,0.2,0
					c0.1,0,0.1,0,0.2,0v0c7.7-1,16.7-13.5,16.7-13.5l-11-3c0,0,0-0.1,0.1-0.1c-0.6-0.3-1-0.5-1-1.2c0-0.6,0-1.1,0-1.4
					c0,0,0.1-0.1,0.1-0.1c0.9-1,4-5.9,4.1-8.2c0.5-0.1,0.8-0.4,0.9-0.7c0.1-0.5,0.3-1.2,0.6-1.8c0.2-0.3,0.7-1.7,0.7-2.6
					c0-1.3-0.3-2.4-0.5-3.2c0.1,0,0.2,0.1,0.3,0.2c0.2,0.1,0.4-0.2,0.4-0.4c-0.4-2.1-0.8-3.8-1.3-5.2l11-3.1
					C97.1,30.6,97.1,30.1,96.2,29.9z M60.4,27.8c0.2,0,0.3,0,0.4,0.1l-0.8,0.2C60,28,60.2,27.9,60.4,27.8z"/>
				<path class="st1" d="M58.2,33.1v1.5c0,0.1,0.1,0.2,0.2,0.2h0C58,37.2,58.2,39.5,58,42c-0.2,2.7,0,5.8-0.9,8.4
					c-0.1,0.2,0.3,0.2,0.4,0.1c0.7-2,0.5-4,0.7-6.1c0.2-2.3,0.2-4.7,0.3-7c-0.1,4.5-0.5,9-0.5,13.5c0,0.4-0.1,0.8-0.1,1.2
					c0,0,0.1,0,0.2,0c0,0,0,0.1,0,0.1c0,0.2,0.4,0.2,0.4,0c0-0.4,0-0.9,0-1.3c0.2-1.3,0.4-2.6,0.5-4c0,1.6,0,3.2-0.1,4.8
					c0,0.1,0.1,0.2,0.2,0.1c-0.1,0.8-0.3,1.6-0.5,2.3c0,0.1,0.3,0.1,0.4-0.1c0.2-0.8,0.4-1.5,0.5-2.3c0,0.1,0,0.3,0,0.4
					c0,0.2,0.4,0.1,0.4,0c0-3,0.2-6,0.2-9.1c0-2.3-0.4-4.7-0.7-7c0-0.4,0.1-0.8,0.1-1.3h0c0.1,0,0.2-0.1,0.2-0.2v-1.5
					c0-0.1-0.1-0.2-0.2-0.2h-0.9h-0.1C58.3,32.9,58.2,33,58.2,33.1z M58.4,46.3c0.1-2.3,0.3-4.5,0.3-6.8c0,0.8,0,1.6,0,2.4
					C58.7,43.4,58.6,44.8,58.4,46.3z M59.2,50.2c0-1.6,0.1-3.2,0.1-4.8C59.3,47,59.3,48.6,59.2,50.2z M59.6,45.7
					c-0.1-2.1-0.3-4.3-0.4-6.4c0-0.1,0-0.2,0-0.4c0.1,0.9,0.2,1.9,0.3,2.8C59.7,43,59.7,44.4,59.6,45.7z"/>
			</g>
		</g>
	</g>
	<g>
		<path class="st0" d="M22.6,123.7v-13.3l-5.5,13.3h-1.3l-5.5-13.3v13.3H7.1v-18h4.4l4.9,11.8l4.9-11.8h4.4v18H22.6z"/>
		<path class="st0" d="M28.7,126.3c0.3,0.1,0.8,0.2,1.1,0.2c0.9,0,1.5-0.3,1.9-1.1l0.6-1.5l-5.3-13.2h3l3.8,9.7l3.8-9.7h3l-6.3,15.4
			c-0.9,2.2-2.5,2.9-4.5,2.9c-0.4,0-1.2-0.1-1.6-0.2L28.7,126.3z"/>
		<path class="st0" d="M41.1,121.2l1.8-2.4c1.2,1.3,3.2,2.5,5.7,2.5c2.6,0,3.6-1.3,3.6-2.5c0-3.8-10.5-1.4-10.5-8.1
			c0-3,2.6-5.3,6.5-5.3c2.8,0,5.1,0.9,6.7,2.5l-1.8,2.3c-1.4-1.4-3.3-2-5.2-2c-1.9,0-3,0.9-3,2.2c0,3.3,10.4,1.3,10.4,8
			c0,3-2.1,5.5-6.9,5.5C45.1,124.1,42.7,122.9,41.1,121.2z"/>
		<path class="st0" d="M58.6,120.7v-7.5h-2.2v-2.5h2.2v-3.6h2.8v3.6H64v2.5h-2.6v6.8c0,0.9,0.4,1.5,1.2,1.5c0.5,0,1-0.2,1.3-0.5
			l0.7,2.1c-0.5,0.5-1.3,0.8-2.7,0.8C59.7,124.1,58.6,122.9,58.6,120.7z"/>
		<path class="st0" d="M74.4,123.7V122c-0.9,1.1-2.6,2-4.6,2c-2.8,0-4.2-1.5-4.2-4.1v-9.2h2.8v8.2c0,2,1,2.6,2.6,2.6
			c1.4,0,2.7-0.8,3.3-1.7v-9.1h2.8v13H74.4z"/>
		<path class="st0" d="M88.3,123.7V122c-1,1.3-2.5,2.1-4.2,2.1c-3.3,0-5.8-2.5-5.8-6.8c0-4.2,2.4-6.8,5.8-6.8c1.6,0,3.1,0.8,4.2,2.1
			v-6.8h2.8v18H88.3z M88.3,119.8v-5.2c-0.6-1-2-1.8-3.4-1.8c-2.2,0-3.7,1.8-3.7,4.3c0,2.5,1.4,4.3,3.7,4.3
			C86.3,121.5,87.7,120.8,88.3,119.8z"/>
		<path class="st0" d="M94,126.3c0.3,0.1,0.8,0.2,1.1,0.2c0.9,0,1.5-0.3,1.9-1.1l0.6-1.5l-5.3-13.2h3l3.8,9.7l3.8-9.7h3l-6.3,15.4
			c-0.9,2.2-2.5,2.9-4.5,2.9c-0.4,0-1.2-0.1-1.6-0.2L94,126.3z"/>
		<path class="st0" d="M107,123.7v-18h3.2V121h7.9v2.8H107z"/>
		<path class="st0" d="M119.1,107.4c0-1,0.8-1.8,1.8-1.8c1,0,1.8,0.8,1.8,1.8c0,1-0.8,1.8-1.8,1.8
			C120,109.1,119.1,108.4,119.1,107.4z M119.5,123.7v-13h2.8v13H119.5z"/>
		<path class="st0" d="M125.6,123.7v-10.5h-2.2v-2.5h2.2V110c0-2.8,1.6-4.5,4.1-4.5c1.2,0,2.3,0.3,3.1,1.1l-1.1,1.8
			c-0.4-0.4-0.9-0.6-1.5-0.6c-1.1,0-1.8,0.7-1.8,2.2v0.7h2.6v2.5h-2.6v10.5H125.6z"/>
		<path class="st0" d="M132.2,117.2c0-3.8,2.7-6.8,6.6-6.8c3.9,0,6.4,3,6.4,7.1v0.7h-10c0.2,2,1.7,3.6,4.1,3.6
			c1.3,0,2.8-0.5,3.7-1.4l1.3,1.9c-1.3,1.2-3.2,1.9-5.3,1.9C135.2,124.1,132.2,121.3,132.2,117.2z M138.8,112.7
			c-2.4,0-3.5,1.9-3.7,3.4h7.3C142.4,114.6,141.4,112.7,138.8,112.7z"/>
	</g>
</g>
</svg>
