<?xml version="1.0" encoding="utf-8"?>
<!-- Generator: Adobe Illustrator 16.0.0, SVG Export Plug-In . SVG Version: 6.00 Build 0)  -->
<!DOCTYPE svg PUBLIC "-//W3C//DTD SVG 1.1//EN" "http://www.w3.org/Graphics/SVG/1.1/DTD/svg11.dtd">
<svg version="1.1" id="Layer_1" xmlns="http://www.w3.org/2000/svg" xmlns:xlink="http://www.w3.org/1999/xlink" x="0px" y="0px"
	 width="300px" height="300px" viewBox="0 0 300 300" enable-background="new 0 0 300 300" xml:space="preserve">
<g>
	<g>
		<g>
			<path fill="#FFFFFF" d="M150.001,102.552c-23.941,0-32.905,10.546-32.905,29.354c0,6.125,0.283,8.098,2.041,14.387
				c1.39,4.973,10.09,19.386,13.305,23.001c3.58,4.016,8.914,7.79,17.559,7.79c8.627,0,12.997-2.261,16.603-6.236
				c3.202-3.527,13.899-20.483,13.899-27.939c0-4.723,2.402-5.461,2.402-11.003C182.906,113.098,173.942,102.552,150.001,102.552z"
				/>
			<path fill="#FFFFFF" d="M166.073,176.019c0-3.722,0.175-5.684,0.356-6.872c-3.604,4.951-7.976,7.775-16.602,7.775
				c-8.646,0-13.004-3.034-16.583-8.044c0.124,1.436,0.225,3.584,0.225,6.855c0,2.533-1.313,3.222-3.216,4.482
				c2.081,3.847,16.19,13.286,19.575,13.286c2.893,0,17.796-9.496,19.647-13.398C167.458,179.076,166.073,178.479,166.073,176.019z"
				/>
			<path fill="#FFFFFF" d="M185.411,112.06c-0.616-2.725-4.872-9.436-6.239-10.556c-1.651-1.345-3.019-4.657-4.247-5.433
				c-1.014-0.638-5.918-0.535-6.793,0.813c0.233,0.695-0.014,1.768,0.581,4.335c0.135,0.569-1.204,6.33-1.499,6.555
				c0.326,1.035,0.129,2.184,1.518,2.684c3.188,1.126,4.917,3.181,3.909,5.811c0.838-1.066,2.236-2.183,2.368-2.846
				c1.548,2.092,2.48,2.975,2.393,4.297c-0.106,1.724-0.488,3.487-0.024,5.145c0.428,1.514,0.966,3.021,2.198,7.225
				c0.456,1.576,1.316,1.473,1.092,3.046c-0.461,3.325-0.795,6.855-0.673,10.218c1.864,0,3.281-1.379,3.431-2.368
				c0.226-1.563,0.913-3.997,2.018-6.149c0.595-1.179,2.418-5.596,2.418-8.673C187.854,119.238,185.853,114.037,185.411,112.06z"/>
			<path fill="#FFFFFF" d="M113.11,112.06c0.615-2.725,4.874-9.436,6.242-10.556c1.65-1.345,3.017-4.657,4.244-5.433
				c1.015-0.638,5.919-0.535,6.795,0.813c-0.234,0.695,0.013,1.768-0.583,4.335c-0.132,0.569,1.206,6.33,1.5,6.555
				c-0.325,1.035-0.126,2.184-1.517,2.684c-3.187,1.126-4.918,3.181-3.908,5.811c-0.838-1.066-2.238-2.183-2.369-2.846
				c-1.547,2.092-2.482,2.975-2.393,4.297c0.106,1.724,0.49,3.487,0.023,5.145c-0.427,1.514-0.965,3.021-2.197,7.225
				c-0.457,1.576-1.315,1.473-1.09,3.046c0.458,3.325,0.791,6.855,0.67,10.218c-1.864,0-3.283-1.379-3.431-2.368
				c-0.227-1.563-0.915-3.997-2.017-6.149c-0.594-1.179-2.419-5.596-2.419-8.673C110.666,119.238,112.67,114.037,113.11,112.06z"/>
		</g>
		<g>
			<g>
				<path fill="#FFFFFF" d="M221.427,83.125l-65.682-18.734c-1.579-0.441-3.664-0.672-5.744-0.672c-2.083,0-4.166,0.231-5.742,0.672
					L78.57,83.125c-3.161,0.901-3.161,2.377,0,3.272l65.689,18.735c1.576,0.453,3.659,0.669,5.742,0.669
					c2.08,0,4.165-0.216,5.744-0.669l65.682-18.735C224.592,85.503,224.592,84.027,221.427,83.125z"/>
				<path fill="#FFFFFF" d="M77.38,84.765c12.03-0.516,24.06-0.76,36.084-0.957l36.093-0.291l36.083,0.281
					c12.034,0.206,24.066,0.441,36.092,0.966c-12.025,0.52-24.058,0.763-36.092,0.963l-36.083,0.285l-36.093-0.285
					C101.439,85.528,89.41,85.284,77.38,84.765z"/>
				<g>
					<g>
						<g>
							<path fill="#FFFFFF" d="M96.143,99.571c-1.039,7.941-0.807,16.186-1.079,24.177c-0.4,11.541-1.727,22.66-3.082,34.094
								c-0.024,0.166,1.196,0.053,1.254-0.381c0.976-8.267,2.542-16.361,2.832-24.703c0.368-10.825-0.181-22.359,1.273-33.188
								H96.143z"/>
						</g>
						<g>
							<path fill="#FFFFFF" d="M93.775,99.571c-1.063,8.244-0.655,16.173-1.334,24.452c-0.748,9.155-0.119,19.567-2.973,28.206
								c-0.25,0.767,1.004,0.767,1.206,0.175c2.253-6.828,1.776-13.515,2.355-20.737c0.853-10.769,0.558-21.443,1.978-32.096H93.775
								z"/>
						</g>
						<g>
							<path fill="#FFFFFF" d="M95.453,99.571h-1.272c0.468,19.551-2.244,39.149-1.67,58.585c0.023,0.75,1.291,0.54,1.27-0.101
								C93.204,138.655,95.905,119.098,95.453,99.571z"/>
						</g>
						<g>
							<path fill="#FFFFFF" d="M96.61,99.571h-1.272c-0.128,18.979,0.573,37.808-0.154,56.861c-0.027,0.744,1.246,0.538,1.271-0.103
								C97.183,137.319,96.48,118.512,96.61,99.571z"/>
						</g>
						<g>
							<path fill="#FFFFFF" d="M96.149,99.571h-1.243c-0.451,21.784,5.208,43.903-0.521,65.144
								c-0.113,0.422,1.135,0.226,1.251-0.197C101.375,143.215,95.737,121.365,96.149,99.571z"/>
						</g>
						<g>
							<path fill="#FFFFFF" d="M95.16,99.571c0.514,7.928,1.764,15.732,2.595,23.648c1.187,11.335-0.499,23.536-0.538,34.962
								c-0.005,0.624,1.253,0.347,1.253-0.157c0.036-10.208,0.66-20.383,0.789-30.567c0.12-9.323-2.077-18.582-2.834-27.886H95.16z"
								/>
						</g>
					</g>
					<g>
						<path fill="#FFFFFF" d="M94.091,93.41c-0.017-6.065,0.08-12.808,1.487-16.085c1.414-3.281,4.222-4.307,6.363-3.897
							c1.6,0.316,2.366,1.092,3.564,2.021l-3.63,1.036c-0.17-0.094-0.762-0.3-1.277-0.204c-0.948,0.188-1.757,0.957-2.279,2.173
							c-1.294,3.003-1.269,11.073-1.259,14.944L94.091,93.41z"/>
					</g>
					<g>
						<path fill="#FFFFFF" d="M97.803,98.98c0,0.329-0.266,0.591-0.591,0.591h-3.315c-0.327,0-0.596-0.263-0.596-0.591v-4.992
							c0-0.319,0.269-0.579,0.596-0.579h3.315c0.326,0,0.591,0.259,0.591,0.579V98.98z"/>
						<path fill="#FFFFFF" d="M97.803,98.98c0,0.329-0.266,0.591-0.591,0.591h-3.315c-0.327,0-0.596-0.263-0.596-0.591H97.803z"/>
						<path fill="#FFFFFF" d="M93.301,93.988c0-0.319,0.269-0.579,0.596-0.579h3.315c0.326,0,0.591,0.259,0.591,0.579H93.301z"/>
					</g>
				</g>
			</g>
			<g>
				<path fill="#FFFFFF" d="M111.892,115.81c21.313-8.388,57.509-8.651,75.569,0.01c0.549,0.259,1.351-0.594,1.213-1.292
					c-1.799-9.752-3.938-17.302-5.855-22.219c-1.079-2.74-2.09-4.66-2.937-5.689c-3.763-4.523-17.593-7.513-29.887-7.513
					c-12.284,0-26.714,1.579-31.228,8.648c-0.865,1.351-1.692,2.771-2.476,4.326c-2.704,5.32-4.896,12.125-6.16,22.503
					C110.05,115.26,111.213,116.073,111.892,115.81z"/>
				<path fill="#FFFFFF" d="M111.892,115.81c21.313-8.388,57.509-8.651,75.569,0.01c0.549,0.259,1.351-0.594,1.213-1.292
					c-10.644-6.424-26.385-7.882-38.679-7.882c-12.284,0-30.276,2.54-39.864,7.938C110.05,115.26,111.213,116.073,111.892,115.81z"
					/>
				<path fill="#FFFFFF" d="M182.818,92.309c-1.079-2.74-2.09-4.66-2.937-5.689c-3.763-4.523-17.593-7.513-29.887-7.513
					c-12.284,0-26.714,1.579-31.228,8.648c-0.865,1.351-1.692,2.771-2.476,4.326c5.286-5.483,15.703-10.343,32.958-10.334
					C166.498,81.746,178.152,86.598,182.818,92.309z"/>
			</g>
		</g>
		<g>
			<path fill="#FFFFFF" d="M94.824,190.668"/>
			<path fill="#FFFFFF" d="M150,193.799c-0.102-0.175-0.172-0.297-0.172-0.297l-19.575-13.286l-37.822,10.452
				c0,0,31.355,43.613,57.569,45.614V193.799z"/>
			<path fill="#FFFFFF" d="M148.755,193.799c0.102-0.175,0.172-0.297,0.172-0.297l19.573-13.286l37.823,10.452
				c0,0-31.354,43.613-57.568,45.614V193.799z"/>
		</g>
	</g>
</g>
</svg>
